<?xml version="1.0" encoding="UTF-8" standalone="no"?>
<svg
   xmlns:dc="http://purl.org/dc/elements/1.1/"
   xmlns:cc="http://creativecommons.org/ns#"
   xmlns:rdf="http://www.w3.org/1999/02/22-rdf-syntax-ns#"
   xmlns:svg="http://www.w3.org/2000/svg"
   xmlns="http://www.w3.org/2000/svg"
   viewBox="0 0 765 270"
   height="270"
   width="765"
   xml:space="preserve"
   version="1.1"
   id="svg2"><metadata
     id="metadata8"><rdf:RDF><cc:Work
         rdf:about=""><dc:format>image/svg+xml</dc:format><dc:type
           rdf:resource="http://purl.org/dc/dcmitype/StillImage" /></cc:Work></rdf:RDF></metadata><defs
     id="defs6"><clipPath
       id="clipPath16"
       clipPathUnits="userSpaceOnUse"><path
         id="path18"
         d="M 0,216 612,216 612,0 0,0 0,216 Z" /></clipPath><clipPath
       id="clipPath118"
       clipPathUnits="userSpaceOnUse"><path
         id="path120"
         d="M 0,216 612,216 612,0 0,0 0,216 Z" /></clipPath></defs><g
     transform="matrix(1.25,0,0,-1.25,0,270)"
     id="g10"><g
       id="g12"><g
         clip-path="url(#clipPath16)"
         id="g14"><g
           transform="translate(41.8027,163.1504)"
           id="g20"><path
             id="path22"
             style="fill:#234580;fill-opacity:1;fill-rule:nonzero;stroke:none"
             d="m 0,0 c 0,-0.699 0.148,-1.304 0.444,-1.815 0.297,-0.512 0.688,-0.935 1.174,-1.271 0.486,-0.336 1.039,-0.584 1.661,-0.746 0.62,-0.161 1.253,-0.242 1.901,-0.242 0.539,0 1.174,0.081 1.902,0.242 0.729,0.162 1.484,0.41 2.266,0.746 0.783,0.336 1.565,0.786 2.348,1.351 0.783,0.565 1.484,1.244 2.105,2.037 0.62,0.793 1.119,1.721 1.496,2.783 0.378,1.062 0.567,2.279 0.567,3.651 0,1.37 -0.189,2.62 -0.567,3.75 -0.377,1.129 -0.889,2.138 -1.537,3.025 -0.648,0.887 -1.397,1.654 -2.247,2.299 -0.849,0.646 -1.733,1.183 -2.65,1.613 -0.918,0.431 -1.849,0.746 -2.793,0.948 -0.944,0.201 -1.835,0.302 -2.671,0.302 -0.836,0 -1.484,-0.04 -1.942,-0.12 C 0.998,18.472 0.661,18.371 0.445,18.25 0.229,18.129 0.101,17.988 0.061,17.827 0.02,17.666 0,17.518 0,17.383 L 0,0 Z m -2.411,-5.046 c -0.592,0 -1.225,-0.026 -1.898,-0.078 -0.671,-0.05 -1.249,-0.077 -1.733,-0.077 -0.107,0 -0.255,0.014 -0.444,0.038 -0.188,0.026 -0.281,0.142 -0.281,0.351 0,0.161 0.093,0.323 0.281,0.484 0.189,0.161 0.592,0.295 1.211,0.403 0.215,0.027 0.43,0.074 0.645,0.141 0.215,0.068 0.409,0.19 0.584,0.364 0.175,0.175 0.316,0.423 0.423,0.747 0.108,0.322 0.162,0.779 0.162,1.371 l 0,18.97 c 0,0.188 -0.094,0.33 -0.283,0.423 -0.188,0.095 -0.423,0.162 -0.705,0.202 -0.282,0.04 -0.577,0.068 -0.887,0.081 -0.31,0.014 -0.599,0.034 -0.867,0.061 -0.457,0.053 -0.773,0.101 -0.948,0.141 -0.175,0.04 -0.261,0.169 -0.261,0.384 0,0.161 0.059,0.289 0.182,0.383 0.12,0.094 0.261,0.161 0.422,0.202 0.162,0.04 0.329,0.067 0.504,0.081 0.175,0.013 0.329,0.02 0.465,0.02 l 3.67,0 c 0.996,0 1.999,0.039 3.009,0.117 1.009,0.077 2.159,0.116 3.452,0.116 2.127,0 4.119,-0.269 5.977,-0.807 1.856,-0.537 3.478,-1.371 4.865,-2.5 1.386,-1.129 2.483,-2.574 3.291,-4.335 0.807,-1.762 1.212,-3.852 1.212,-6.273 0,-1.505 -0.331,-2.931 -0.991,-4.275 C 17.987,0.345 17.092,-0.824 15.961,-1.82 14.831,-2.814 13.506,-3.602 11.984,-4.179 10.462,-4.757 8.841,-5.046 7.119,-5.046 l -9.53,0" /></g><g
           transform="translate(69.5576,157.4521)"
           id="g24"><path
             id="path26"
             style="fill:#234580;fill-opacity:1;fill-rule:nonzero;stroke:none"
             d="M 0,0 C -0.941,0 -1.728,0.135 -2.36,0.404 -2.992,0.673 -3.489,1.062 -3.853,1.573 -4.215,2.085 -4.471,2.69 -4.619,3.389 -4.767,4.088 -4.84,4.869 -4.84,5.73 c 0,0.619 0.006,1.303 0.019,2.058 0.012,0.753 0.02,1.506 0.02,2.26 0,0.78 0.006,1.539 0.019,2.279 0.013,0.739 0.019,1.405 0.019,1.997 0,0.296 -0.134,0.485 -0.404,0.565 -0.268,0.08 -0.524,0.148 -0.766,0.202 -0.483,0.135 -0.806,0.235 -0.967,0.303 -0.162,0.066 -0.242,0.167 -0.242,0.302 0,0.188 0.094,0.296 0.283,0.323 0.188,0.026 0.43,0.041 0.725,0.041 0.296,0 0.585,-0.014 0.866,-0.04 0.283,-0.025 0.573,-0.039 0.871,-0.039 0.297,0 0.595,0.014 0.892,0.039 0.298,0.026 0.596,0.04 0.894,0.04 0.271,0 0.44,-0.054 0.507,-0.162 0.068,-0.108 0.102,-0.31 0.102,-0.605 0,-1.802 -0.014,-3.596 -0.039,-5.384 C -2.067,8.121 -2.08,6.326 -2.08,4.525 c 0,-0.834 0.282,-1.472 0.845,-1.915 0.564,-0.443 1.342,-0.666 2.336,-0.666 1.126,0 2.005,0.108 2.635,0.323 0.631,0.215 1.107,0.491 1.429,0.826 0.322,0.336 0.531,0.72 0.624,1.15 0.094,0.43 0.141,0.847 0.141,1.25 0,1.453 0.013,2.89 0.039,4.316 0.026,1.424 0.039,2.862 0.039,4.315 0,0.106 -0.021,0.201 -0.06,0.281 -0.041,0.081 -0.135,0.149 -0.282,0.202 -0.148,0.054 -0.357,0.115 -0.626,0.182 -0.268,0.067 -0.645,0.168 -1.129,0.302 -0.161,0.054 -0.396,0.135 -0.705,0.242 -0.31,0.108 -0.464,0.242 -0.464,0.403 0,0.135 0.094,0.222 0.282,0.263 0.188,0.04 0.39,0.061 0.605,0.061 0.35,0 0.692,-0.014 1.029,-0.04 0.335,-0.025 0.678,-0.039 1.028,-0.039 0.403,0 0.802,0.014 1.193,0.039 0.392,0.026 0.789,0.04 1.195,0.04 0.134,0 0.31,-0.048 0.526,-0.142 0.216,-0.094 0.324,-0.33 0.324,-0.706 0,-2.044 -0.026,-4.081 -0.077,-6.111 C 8.794,7.071 8.769,5.034 8.769,2.99 c 0,-0.43 0.127,-0.699 0.383,-0.807 0.255,-0.108 0.477,-0.16 0.665,-0.16 0.78,0 1.325,-0.014 1.633,-0.042 0.309,-0.025 0.465,-0.145 0.465,-0.357 0,-0.16 -0.062,-0.266 -0.182,-0.318 C 11.612,1.252 11.403,1.2 11.107,1.146 9.683,0.933 8.563,0.748 7.749,0.588 6.934,0.43 6.432,0.351 6.242,0.351 6.086,0.351 5.995,0.411 5.969,0.532 5.943,0.653 5.93,0.807 5.93,0.996 l 0,0.928 C 5.93,2.246 5.836,2.407 5.648,2.407 5.486,2.407 5.258,2.285 4.962,2.043 4.667,1.801 4.283,1.526 3.813,1.217 3.342,0.908 2.791,0.628 2.159,0.377 1.527,0.126 0.808,0 0,0" /></g><g
           transform="translate(84.8188,181.1499)"
           id="g28"><path
             id="path30"
             style="fill:#234580;fill-opacity:1;fill-rule:nonzero;stroke:none"
             d="m 0,0 c 0,0.538 -0.101,0.92 -0.303,1.149 -0.201,0.229 -0.43,0.391 -0.686,0.485 -0.255,0.094 -0.484,0.168 -0.685,0.221 -0.201,0.054 -0.302,0.175 -0.302,0.364 0,0.134 0.067,0.235 0.201,0.302 0.135,0.067 0.35,0.155 0.646,0.263 L 1.624,3.832 C 1.732,3.884 1.84,3.91 1.949,3.91 l 0.365,0 C 2.422,3.91 2.524,3.863 2.618,3.768 2.713,3.674 2.761,3.479 2.761,3.184 l 0,-16.593 c 0,-0.43 0.12,-0.645 0.362,-0.645 0.054,0 0.262,0.087 0.625,0.261 0.363,0.175 0.787,0.404 1.271,0.687 0.483,0.282 1,0.598 1.551,0.948 0.552,0.35 1.056,0.686 1.512,1.01 0.458,0.321 0.841,0.611 1.15,0.866 0.309,0.256 0.464,0.451 0.464,0.586 0,0.268 -0.081,0.476 -0.241,0.625 -0.163,0.148 -0.337,0.269 -0.525,0.363 -0.189,0.094 -0.364,0.188 -0.524,0.282 -0.162,0.095 -0.242,0.222 -0.242,0.384 0,0.108 0.06,0.202 0.181,0.282 0.121,0.081 0.248,0.122 0.383,0.122 0.43,0 0.92,-0.014 1.472,-0.04 0.55,-0.025 1.094,-0.038 1.633,-0.038 0.51,0 1.042,0.013 1.593,0.038 0.551,0.026 1.028,0.04 1.432,0.04 0.187,0 0.362,-0.028 0.523,-0.081 0.162,-0.054 0.242,-0.189 0.242,-0.403 0,-0.107 -0.074,-0.209 -0.221,-0.303 -0.149,-0.094 -0.33,-0.181 -0.544,-0.262 -0.216,-0.081 -0.437,-0.154 -0.666,-0.221 -0.229,-0.067 -0.411,-0.128 -0.544,-0.181 -0.296,-0.136 -0.867,-0.437 -1.714,-0.908 -0.848,-0.47 -1.721,-0.973 -2.621,-1.51 -0.901,-0.538 -1.701,-1.042 -2.4,-1.513 -0.698,-0.469 -1.048,-0.758 -1.048,-0.866 0,-0.134 0.04,-0.248 0.121,-0.342 0.08,-0.094 0.148,-0.168 0.202,-0.222 l 6.976,-6.327 c 0.403,-0.376 0.799,-0.658 1.189,-0.847 0.39,-0.188 0.732,-0.342 1.028,-0.463 0.296,-0.121 0.531,-0.222 0.706,-0.302 0.175,-0.08 0.262,-0.189 0.262,-0.322 0,-0.269 -0.349,-0.403 -1.048,-0.403 -0.43,0 -0.901,0.027 -1.412,0.077 -0.511,0.052 -1.075,0.078 -1.693,0.078 -0.538,0 -1.049,-0.026 -1.532,-0.078 -0.485,-0.05 -0.968,-0.077 -1.452,-0.077 -0.43,0 -0.739,0.021 -0.927,0.06 -0.189,0.04 -0.282,0.154 -0.282,0.342 0,0.188 0.107,0.315 0.321,0.382 0.216,0.067 0.497,0.128 0.847,0.182 0.216,0.026 0.397,0.093 0.545,0.2 0.148,0.107 0.222,0.228 0.222,0.363 0,0.133 -0.148,0.348 -0.443,0.644 l -6.089,5.751 c -0.162,0.161 -0.283,0.241 -0.364,0.241 -0.188,0 -0.281,-0.067 -0.281,-0.201 l 0,-5.711 c 0,-0.457 0.1,-0.772 0.301,-0.947 0.202,-0.174 0.397,-0.287 0.585,-0.34 0.323,-0.108 0.599,-0.182 0.827,-0.222 0.228,-0.04 0.342,-0.154 0.342,-0.342 0,-0.161 -0.1,-0.268 -0.301,-0.322 -0.203,-0.053 -0.411,-0.08 -0.625,-0.08 -0.485,0 -0.943,0.027 -1.375,0.077 -0.432,0.052 -0.878,0.078 -1.337,0.078 -0.489,0 -1.008,-0.026 -1.56,-0.078 -0.552,-0.05 -1.002,-0.077 -1.352,-0.077 -0.135,0 -0.329,0.021 -0.585,0.06 -0.255,0.04 -0.383,0.155 -0.383,0.343 0,0.189 0.066,0.316 0.202,0.383 0.134,0.067 0.31,0.128 0.524,0.181 0.268,0.081 0.524,0.148 0.766,0.202 0.241,0.053 0.457,0.134 0.645,0.242 0.188,0.108 0.329,0.269 0.423,0.484 C -0.048,-21.003 0,-20.681 0,-20.25 L 0,0" /></g><g
           transform="translate(107.6855,168.7676)"
           id="g32"><path
             id="path34"
             style="fill:#234580;fill-opacity:1;fill-rule:nonzero;stroke:none"
             d="m 0,0 c 0.887,0 1.599,0.033 2.137,0.101 0.537,0.067 0.954,0.181 1.25,0.343 0.295,0.16 0.49,0.362 0.584,0.604 0.095,0.242 0.142,0.55 0.142,0.927 0,0.699 -0.283,1.282 -0.847,1.753 C 2.701,4.198 1.989,4.433 1.129,4.433 0.403,4.433 -0.249,4.277 -0.827,3.969 -1.405,3.66 -1.888,3.291 -2.278,2.861 -2.668,2.431 -2.971,1.987 -3.186,1.531 -3.4,1.074 -3.508,0.685 -3.508,0.363 c 0,-0.081 0.02,-0.142 0.06,-0.182 0.04,-0.04 0.175,-0.074 0.403,-0.1 0.229,-0.028 0.578,-0.048 1.048,-0.06 C -1.526,0.007 -0.86,0 0,0 M -3.858,-1.205 C -3.91,-1.34 -3.936,-1.529 -3.936,-1.771 l 0,-0.85 c 0,-0.862 0.074,-1.698 0.222,-2.505 0.148,-0.809 0.429,-1.523 0.846,-2.142 0.417,-0.621 1.008,-1.126 1.774,-1.517 0.766,-0.392 1.768,-0.586 3.005,-0.586 0.779,0 1.383,0.08 1.814,0.242 0.431,0.161 0.767,0.342 1.008,0.545 0.242,0.201 0.43,0.389 0.565,0.563 0.134,0.175 0.283,0.263 0.444,0.263 0.241,0 0.363,-0.107 0.363,-0.323 0,-0.08 -0.107,-0.288 -0.323,-0.625 -0.215,-0.336 -0.565,-0.7 -1.049,-1.091 -0.484,-0.391 -1.095,-0.743 -1.834,-1.053 -0.739,-0.31 -1.633,-0.465 -2.682,-0.465 -2.231,0 -3.955,0.734 -5.169,2.201 -1.215,1.468 -1.822,3.466 -1.822,5.997 0,0.943 0.147,1.918 0.442,2.928 0.296,1.009 0.745,1.924 1.349,2.746 0.604,0.821 1.363,1.502 2.276,2.04 0.913,0.538 2,0.808 3.262,0.808 C 1.709,5.405 2.683,5.19 3.474,4.76 4.267,4.33 4.904,3.813 5.387,3.208 5.871,2.604 6.22,1.979 6.434,1.333 6.649,0.689 6.758,0.151 6.758,-0.278 6.758,-0.655 6.709,-0.904 6.616,-1.024 6.522,-1.146 6.302,-1.205 5.953,-1.205 l -9.811,0" /></g><g
           transform="translate(125.1138,185.4199)"
           id="g36"><path
             id="path38"
             style="fill:#234580;fill-opacity:1;fill-rule:nonzero;stroke:none"
             d="m 0,0 0,-35.402 0.36,0 0,35.402" /></g><g
           transform="translate(135.8643,160.6738)"
           id="g40"><path
             id="path42"
             style="fill:#234580;fill-opacity:1;fill-rule:nonzero;stroke:none"
             d="m 0,0 0,14.112 2.117,0 0,-12.036 7.035,0 L 9.152,0 0,0 Z" /></g><g
           transform="translate(151.2456,169.6045)"
           id="g44"><path
             id="path46"
             style="fill:#234580;fill-opacity:1;fill-rule:nonzero;stroke:none"
             d="m 0,0 c -1.391,0 -2.237,-0.968 -2.419,-2.661 l 4.919,0 C 2.399,-1.209 1.714,0 0,0 m 4.537,-4.375 -6.996,0 c 0.222,-2.036 1.371,-2.903 2.661,-2.903 0.887,0 1.592,0.323 2.298,0.847 l 1.23,-1.33 C 2.803,-8.649 1.694,-9.153 0.081,-9.153 c -2.479,0 -4.576,1.996 -4.576,5.504 0,3.588 1.895,5.524 4.636,5.524 3.005,0 4.456,-2.439 4.456,-5.302 0,-0.383 -0.04,-0.726 -0.06,-0.948" /></g><g
           transform="translate(164.3496,165.1895)"
           id="g48"><path
             id="path50"
             style="fill:#234580;fill-opacity:1;fill-rule:nonzero;stroke:none"
             d="m 0,0 c -0.564,0.283 -1.29,0.464 -2.419,0.464 -1.331,0 -2.177,-0.605 -2.177,-1.573 0,-1.048 0.665,-1.754 2.036,-1.754 1.109,0 2.076,0.686 2.56,1.351 L 0,0 Z m 0,-4.516 0,1.049 c -0.726,-0.726 -1.753,-1.271 -2.903,-1.271 -1.713,0 -3.669,0.968 -3.669,3.569 0,2.358 1.815,3.427 4.214,3.427 0.987,0 1.774,-0.141 2.358,-0.404 l 0,0.787 c 0,1.149 -0.705,1.794 -1.996,1.794 -1.088,0 -1.935,-0.202 -2.761,-0.665 l -0.807,1.572 c 1.008,0.625 2.137,0.948 3.629,0.948 2.359,0 3.971,-1.149 3.971,-3.548 l 0,-7.258 -2.036,0 z" /></g><g
           transform="translate(175.1152,169.0601)"
           id="g52"><path
             id="path54"
             style="fill:#234580;fill-opacity:1;fill-rule:nonzero;stroke:none"
             d="m 0,0 c -0.443,0.242 -0.907,0.383 -1.593,0.383 -1.31,0 -2.076,-0.927 -2.076,-2.722 l 0,-6.047 -2.077,0 0,10.584 2.077,0 0,-1.009 c 0.484,0.706 1.371,1.23 2.419,1.23 0.847,0 1.371,-0.161 1.794,-0.443 L 0,0 Z" /></g><g
           transform="translate(184.2275,160.6738)"
           id="g56"><path
             id="path58"
             style="fill:#234580;fill-opacity:1;fill-rule:nonzero;stroke:none"
             d="M 0,0 0,5.987 C 0,8.125 -0.807,8.89 -2.177,8.89 -3.568,8.89 -4.354,7.902 -4.354,6.189 l 0,-6.189 -2.077,0 0,10.584 2.077,0 0,-1.008 c 0.523,0.766 1.571,1.23 2.66,1.23 2.46,0 3.77,-1.613 3.77,-4.738 L 2.076,0 0,0 Z" /></g><path
           id="path60"
           style="fill:#234580;fill-opacity:1;fill-rule:nonzero;stroke:none"
           d="m 189.388,171.258 2.076,0 0,-10.584 -2.076,0 0,10.584 z m 1.049,1.37 c -0.747,0 -1.351,0.605 -1.351,1.331 0,0.746 0.604,1.351 1.351,1.351 0.725,0 1.33,-0.605 1.33,-1.351 0,-0.726 -0.605,-1.331 -1.33,-1.331" /><g
           transform="translate(201.061,160.6738)"
           id="g62"><path
             id="path64"
             style="fill:#234580;fill-opacity:1;fill-rule:nonzero;stroke:none"
             d="M 0,0 0,5.987 C 0,8.125 -0.807,8.89 -2.177,8.89 -3.568,8.89 -4.354,7.902 -4.354,6.189 l 0,-6.189 -2.077,0 0,10.584 2.077,0 0,-1.008 c 0.523,0.766 1.571,1.23 2.66,1.23 2.46,0 3.77,-1.613 3.77,-4.738 L 2.076,0 0,0 Z" /></g><g
           transform="translate(212.5117,168.1733)"
           id="g66"><path
             id="path68"
             style="fill:#234580;fill-opacity:1;fill-rule:nonzero;stroke:none"
             d="m 0,0 c -0.464,0.625 -1.431,1.391 -2.479,1.391 -1.493,0 -2.299,-1.129 -2.299,-3.367 0,-2.661 0.847,-3.83 2.379,-3.83 0.988,0 1.855,0.665 2.399,1.35 L 0,0 Z m -2.963,-11.391 -0.706,1.573 c 2.983,0.141 3.628,0.947 3.628,3.145 l 0,0.181 c -0.766,-0.705 -1.632,-1.23 -2.741,-1.23 -2.258,0 -4.072,1.654 -4.072,5.686 0,3.629 1.995,5.342 4.172,5.342 1.069,0 2.077,-0.564 2.641,-1.21 l 0,0.988 2.077,0 0,-9.576 c 0,-3.225 -1.169,-4.778 -4.999,-4.899" /></g><path
           id="path70"
           style="fill:#234580;fill-opacity:1;fill-rule:nonzero;stroke:none"
           d="m 223.458,174.786 2.117,0 0,-14.112 -2.117,0 0,14.112 z" /><g
           transform="translate(235.4736,160.6738)"
           id="g72"><path
             id="path74"
             style="fill:#234580;fill-opacity:1;fill-rule:nonzero;stroke:none"
             d="M 0,0 0,5.987 C 0,8.125 -0.807,8.89 -2.177,8.89 -3.568,8.89 -4.354,7.902 -4.354,6.189 l 0,-6.189 -2.077,0 0,10.584 2.077,0 0,-1.008 c 0.523,0.766 1.572,1.23 2.661,1.23 2.459,0 3.769,-1.613 3.769,-4.738 L 2.076,0 0,0 Z" /></g><g
           transform="translate(246.9644,160.6738)"
           id="g76"><path
             id="path78"
             style="fill:#234580;fill-opacity:1;fill-rule:nonzero;stroke:none"
             d="M 0,0 0,5.987 C 0,8.125 -0.807,8.89 -2.177,8.89 -3.568,8.89 -4.354,7.902 -4.354,6.189 l 0,-6.189 -2.077,0 0,10.584 2.077,0 0,-1.008 c 0.523,0.766 1.572,1.23 2.661,1.23 2.459,0 3.769,-1.613 3.769,-4.738 L 2.076,0 0,0 Z" /></g><g
           transform="translate(256.1572,169.5039)"
           id="g80"><path
             id="path82"
             style="fill:#234580;fill-opacity:1;fill-rule:nonzero;stroke:none"
             d="m 0,0 c -1.572,0 -2.54,-1.391 -2.54,-3.488 0,-2.318 1.068,-3.589 2.641,-3.589 1.572,0 2.601,1.593 2.601,3.529 C 2.702,-1.391 1.673,0 0,0 m 0.02,-9.052 c -2.661,0 -4.657,2.198 -4.657,5.504 0,3.467 2.056,5.524 4.718,5.524 2.701,0 4.717,-2.158 4.717,-5.464 0,-3.508 -2.056,-5.564 -4.778,-5.564" /></g><g
           transform="translate(268.1523,160.6738)"
           id="g84"><path
             id="path86"
             style="fill:#234580;fill-opacity:1;fill-rule:nonzero;stroke:none"
             d="m 0,0 -2.076,0 -3.791,10.584 2.178,0 1.895,-5.746 c 0.343,-1.028 0.645,-2.016 0.786,-2.601 0.121,0.585 0.404,1.573 0.726,2.601 l 1.814,5.746 2.197,0 L 0,0 Z" /></g><g
           transform="translate(279.583,165.1895)"
           id="g88"><path
             id="path90"
             style="fill:#234580;fill-opacity:1;fill-rule:nonzero;stroke:none"
             d="m 0,0 c -0.564,0.283 -1.29,0.464 -2.419,0.464 -1.331,0 -2.178,-0.605 -2.178,-1.573 0,-1.048 0.666,-1.754 2.036,-1.754 1.109,0 2.077,0.686 2.561,1.351 L 0,0 Z m 0,-4.516 0,1.049 c -0.726,-0.726 -1.754,-1.271 -2.903,-1.271 -1.714,0 -3.669,0.968 -3.669,3.569 0,2.358 1.814,3.427 4.213,3.427 0.988,0 1.775,-0.141 2.359,-0.404 l 0,0.787 c 0,1.149 -0.706,1.794 -1.996,1.794 -1.088,0 -1.935,-0.202 -2.762,-0.665 l -0.806,1.572 c 1.008,0.625 2.137,0.948 3.628,0.948 2.359,0 3.972,-1.149 3.972,-3.548 l 0,-7.258 -2.036,0 z" /></g><g
           transform="translate(289.6626,160.9355)"
           id="g92"><path
             id="path94"
             style="fill:#234580;fill-opacity:1;fill-rule:nonzero;stroke:none"
             d="m 0,0 c -0.504,-0.282 -1.209,-0.484 -2.036,-0.484 -1.471,0 -2.379,0.907 -2.379,2.803 l 0,6.108 -1.512,0 0,1.895 1.512,0 0,3.024 2.037,1.089 0,-4.113 2.62,0 0,-1.895 -2.62,0 0,-5.745 c 0,-0.988 0.322,-1.27 1.088,-1.27 0.544,0 1.149,0.201 1.532,0.422 L 0,0 Z" /></g><path
           id="path96"
           style="fill:#234580;fill-opacity:1;fill-rule:nonzero;stroke:none"
           d="m 292.828,171.258 2.077,0 0,-10.584 -2.077,0 0,10.584 z m 1.048,1.37 c -0.746,0 -1.351,0.605 -1.351,1.331 0,0.746 0.605,1.351 1.351,1.351 0.726,0 1.331,-0.605 1.331,-1.351 0,-0.726 -0.605,-1.331 -1.331,-1.331" /><g
           transform="translate(302.2026,169.5039)"
           id="g98"><path
             id="path100"
             style="fill:#234580;fill-opacity:1;fill-rule:nonzero;stroke:none"
             d="m 0,0 c -1.573,0 -2.541,-1.391 -2.541,-3.488 0,-2.318 1.069,-3.589 2.642,-3.589 1.572,0 2.6,1.593 2.6,3.529 C 2.701,-1.391 1.673,0 0,0 m 0.02,-9.052 c -2.661,0 -4.657,2.198 -4.657,5.504 0,3.467 2.056,5.524 4.718,5.524 2.701,0 4.716,-2.158 4.716,-5.464 0,-3.508 -2.056,-5.564 -4.777,-5.564" /></g><g
           transform="translate(315.9912,160.6738)"
           id="g102"><path
             id="path104"
             style="fill:#234580;fill-opacity:1;fill-rule:nonzero;stroke:none"
             d="M 0,0 0,5.987 C 0,8.125 -0.807,8.89 -2.177,8.89 -3.568,8.89 -4.354,7.902 -4.354,6.189 l 0,-6.189 -2.077,0 0,10.584 2.077,0 0,-1.008 c 0.524,0.766 1.572,1.23 2.661,1.23 2.46,0 3.769,-1.613 3.769,-4.738 L 2.076,0 0,0 Z" /></g></g></g><text
       id="text106"
       style="font-variant:normal;font-weight:normal;font-stretch:normal;font-size:8px;font-family:'Myriad Pro';-inkscape-font-specification:MyriadPro-Regular;writing-mode:lr-tb;fill:#110f0d;fill-opacity:1;fill-rule:nonzero;stroke:none"
       transform="matrix(1,0,0,-1,400.6836,176.1084)"><tspan
         id="tspan108"
         y="0"
         x="0 4.368 8.7600002 11.928 14.528 18.92 22.504 26.256001 27.952 31.728001 33.599998 38.152 40.728802 44.584801 47.400799 51.1688 52.864799 56.9688 61.0728">Bostock Library 030</tspan><tspan
         id="tspan110"
         y="9.6000004"
         x="0 5.3520002 9.7600002 13.512 17.52 19.216 24.392 28.832001 30.704 34.471199 38.479198 41.0952 44.263199 46.135201 48.855999 52.624001 54.32 58.687199 62.967201 66.671204 68.367203 72.471199 76.575203 80.679199 84.783203">Duke University Box 90198</tspan><tspan
         id="tspan112"
         y="19.200001"
         x="0 5.3520002 9.7600002 12.408 16.848 20.704 27.375999 29.032 30.728001 35.992001 40.383999 43.192001 45.84 50.279999 51.976002 56.560001 60.416 62.952 67.344002 69.232002 71.103996 75.543999 79.400002 81.096001 85.199997 89.304001 93.407997 97.512001">Durham, North Carolina 27708</tspan></text>
<g
       id="g114"><g
         clip-path="url(#clipPath118)"
         id="g116"><g
           transform="translate(18.1006,113.3428)"
           id="g122"><path
             id="path124"
             style="fill:none;stroke:#231f20;stroke-width:0.25;stroke-linecap:butt;stroke-linejoin:miter;stroke-miterlimit:10;stroke-dasharray:none;stroke-opacity:1"
             d="M 0,0 560,1" /></g></g></g></g></svg>